<?xml version="1.0" encoding="utf-8"?>
<!-- Generator: Adobe Illustrator 24.0.0, SVG Export Plug-In . SVG Version: 6.00 Build 0)  -->
<svg version="1.1" id="레이어_1" xmlns="http://www.w3.org/2000/svg" xmlns:xlink="http://www.w3.org/1999/xlink" x="0px"
	 y="0px" viewBox="0 0 280 280" style="enable-background:new 0 0 280 280;" xml:space="preserve">
<style type="text/css">
	.st0{fill:#66C5D9;}
	.st1{fill:none;}
</style>
<g id="레이어_1_1_">
	<path class="st0" d="M245.7,214.3c3-10.8,2.5-24-1.7-38.8c6.9-10,12.7-20.2,17.1-30.2c9.5,26,8.5,48.9-5.2,62.2
		C253,210.3,249.6,212.6,245.7,214.3 M232.6,230c-2.9,2.8-6.3,5.1-10.2,6.9c1.3-4.6,1.9-9.5,1.9-14.8c5.5,0,10.7-0.6,15.4-1.9
		C237.9,223.9,235.5,227.2,232.6,230 M209.2,252.6c-12.5,12.1-33.9,14.4-60.2,6.3c-1.4-0.4-2.7-0.9-4.1-1.3
		c10.4-4.3,20.9-9.8,31.2-16.5c8.8,2.3,17.1,3.5,24.7,3.5c5.5,0,10.7-0.6,15.4-1.9C214.5,246.4,212.2,249.7,209.2,252.6
		 M102.4,263.7c-13,0-24-3.6-31.8-11.1c-2.9-2.9-5.3-6.2-7.1-9.8c4.7,1.2,9.9,1.9,15.4,1.9c7.6,0,15.9-1.2,24.7-3.5
		c10.4,6.7,20.9,12.3,31.3,16.5C123.3,261.6,112.3,263.7,102.4,263.7 M47.3,230c-3-2.9-5.3-6.2-7.1-9.8c4.7,1.2,9.8,1.8,15.4,1.9
		c0,5.3,0.6,10.3,1.9,14.8C53.6,235.1,50.2,232.9,47.3,230 M23.9,207.5c-13.7-13.3-14.7-36.2-5.2-62.2c4.4,10.1,10.2,20.2,17.1,30.2
		c-4.2,14.8-4.7,28-1.7,38.8C30.3,212.6,26.9,210.3,23.9,207.5 M17.4,131.7c-8.3-25.4-6-46.1,6.5-58.2c2.9-2.8,6.3-5.1,10.2-6.9
		c-3,10.8-2.5,24,1.7,38.8c-6.9,10-12.6,20.2-17.1,30.2C18.3,134.3,17.8,133,17.4,131.7 M47.3,50.9c2.9-2.8,6.3-5.1,10.2-6.9
		c-1.3,4.6-1.9,9.5-1.9,14.8c-5.5,0-10.7,0.6-15.4,1.8C42,57,44.4,53.7,47.3,50.9 M70.6,28.4c7.6-7.3,18.4-11.1,31.7-11.1
		c8.6,0,18.2,1.6,28.5,4.7c1.4,0.4,2.7,0.9,4.1,1.3c-10.4,4.3-20.9,9.8-31.2,16.5c-15.3-4-28.9-4.6-40.1-1.7
		C65.3,34.5,67.7,31.2,70.6,28.4 M149,22c10.3-3.2,19.9-4.7,28.5-4.7c13.2,0,24.1,3.7,31.7,11.1c2.9,2.9,5.3,6.2,7.1,9.8
		c-11.2-2.9-24.8-2.4-40.1,1.6c-10.3-6.7-20.8-12.2-31.2-16.5C146.3,22.9,147.7,22.4,149,22 M232.6,50.9c2.9,2.8,5.3,6.2,7.1,9.8
		c-4.7-1.2-9.9-1.8-15.4-1.8c0-5.3-0.6-10.3-1.9-14.8C226.2,45.8,229.6,48.1,232.6,50.9 M242.6,170.8c-3.3-10-8-20.2-13.9-30.3
		c6-10.2,10.7-20.4,13.9-30.3c0-0.1,0.1-0.2,0.1-0.3c6.9,10.3,12.5,20.7,16.6,30.6c-4.1,10-9.6,20.3-16.6,30.6
		C242.6,171,242.6,170.9,242.6,170.8 M220.8,198.6c-0.5-1.7-1-3.5-1.6-5.3c-2.6-8.1-6.2-16.3-10.6-24.5c6.8-8.1,12.8-16.5,17.9-24.9
		c6.1,10.6,10.6,21,13.6,30.9C234.5,182.9,228,190.9,220.8,198.6 M204.4,219.7c5.7,1.3,11.1,2,16.3,2.2c0,6-0.9,11.6-2.6,16.6
		c-10.3,3.4-23.2,3.4-37.9-0.1C188.4,232.9,196.5,226.6,204.4,219.7 M172.4,236.3c-9.5-2.9-19.1-7-28.8-12.2
		c8.7-5,17.3-10.8,25.7-17.3c8.5,4.3,17,7.7,25.3,10.3c1.9,0.6,3.7,1.1,5.5,1.5c-8.1,6.9-16.3,13.2-24.6,18.6
		C174.5,237,173.4,236.7,172.4,236.3 M108.6,239.7c10.3-3.1,20.9-7.7,31.4-13.5c10.5,5.8,21.1,10.3,31.4,13.5c0.1,0,0.2,0.1,0.3,0.1
		c-10.7,6.7-21.3,12.1-31.6,16c-10.5-4-21.2-9.4-31.7-16C108.3,239.8,108.4,239.7,108.6,239.7 M79.7,218.7c1.8-0.5,3.6-1,5.5-1.5
		c8.3-2.5,16.8-6,25.3-10.3c8.4,6.5,17,12.3,25.7,17.3c-10.9,5.9-21.7,10.3-31.9,13.1C96,231.8,87.7,225.6,79.7,218.7 M75.4,219.7
		c7.9,6.9,16,13.2,24.3,18.8c-7.3,1.7-14.2,2.6-20.7,2.6c-6.3,0-12.1-0.8-17.3-2.5c-1.8-5-2.6-10.6-2.6-16.6
		C64.3,221.7,69.7,221,75.4,219.7 M53.3,144c5.2,8.4,11.2,16.7,17.9,24.9c-4.4,8.2-8,16.4-10.6,24.5c-0.6,1.8-1.1,3.6-1.6,5.3
		c-7.1-7.7-13.6-15.7-19.3-23.8C42.7,165,47.3,154.6,53.3,144 M37.3,110.2c3.3,10,8,20.2,13.9,30.3c-6,10.2-10.7,20.4-13.9,30.3
		c0,0.1-0.1,0.2-0.1,0.3c-6.8-10.2-12.4-20.5-16.5-30.7c4.1-9.9,9.6-20.3,16.5-30.6C37.2,109.9,37.2,110.1,37.3,110.2 M59,82.3
		c0.5,1.7,1,3.5,1.6,5.3c2.6,8.1,6.2,16.3,10.6,24.5c-6.8,8.1-12.8,16.5-17.9,24.9c-5.3-9.3-9.6-18.7-12.6-27.8
		c-0.3-1-0.6-2-0.9-3.1C45.4,98,51.8,90.1,59,82.3 M72.2,64.1c-1.9,1.7-3.8,3.5-5.7,5.3c-1.9,1.8-3.7,3.7-5.5,5.5
		c-0.9-4.3-1.5-8.5-1.7-12.5C63.4,62.7,67.7,63.3,72.2,64.1 M107.5,44.6c9.5,2.9,19.1,7,28.8,12.2c-8.7,5-17.3,10.8-25.7,17.3
		c-8.5-4.3-17-7.7-25.3-10.3c-1.9-0.6-3.7-1.1-5.5-1.5c8-6.9,16.2-13.1,24.6-18.6C105.3,44,106.4,44.3,107.5,44.6 M171.3,41.2
		c-10.3,3.2-20.9,7.7-31.4,13.5c-10.5-5.8-21.1-10.3-31.4-13.5c-0.1,0-0.2-0.1-0.3-0.1c10.5-6.6,21.2-12,31.7-16
		c10.5,4,21.2,9.4,31.7,16C171.5,41.2,171.4,41.2,171.3,41.2 M200.1,62.2c-1.8,0.5-3.6,1-5.5,1.5c-8.3,2.5-16.8,6-25.3,10.3
		c-8.4-6.5-17-12.3-25.7-17.3c9.7-5.2,19.3-9.3,28.8-12.2c1.1-0.3,2.1-0.6,3.2-0.9C183.9,49.1,192.1,55.4,200.1,62.2 M204.4,61.2
		c-7.8-6.9-16-13.2-24.2-18.7c7.4-1.7,14.3-2.6,20.7-2.6c6.3,0,12,0.9,17.2,2.5c1.8,5,2.6,10.6,2.6,16.6
		C215.5,59.2,210.1,60,204.4,61.2 M218.9,75c-1.8-1.9-3.7-3.7-5.6-5.5c-1.9-1.8-3.8-3.6-5.7-5.3c4.5-0.9,8.8-1.4,12.9-1.6
		C220.4,66.5,219.8,70.7,218.9,75 M208.6,112.1c4.4-8.2,8-16.4,10.6-24.5c0.6-1.8,1.1-3.6,1.6-5.3c7.2,7.8,13.7,15.8,19.3,23.8
		c-2.9,9.9-7.5,20.3-13.6,30.8C221.4,128.5,215.4,120.2,208.6,112.1 M190,140.5c6.4-8.2,12-16.6,16.8-25c6.8,8.3,12.7,16.7,17.7,25
		c-5,8.3-11,16.7-17.7,25C202,157.1,196.3,148.7,190,140.5 M139.9,188.8c8.5,6.2,17.2,11.6,25.9,16.2c-8.6,6.6-17.3,12.3-25.9,17.1
		c-8.7-4.9-17.4-10.6-25.9-17.1C122.7,200.5,131.4,195,139.9,188.8 M89.9,140.5c-6.4,8.2-12,16.6-16.8,25
		c-6.7-8.2-12.7-16.6-17.7-25c5-8.3,11-16.7,17.7-25C77.9,123.9,83.5,132.2,89.9,140.5 M139.9,92.1c-8.5-6.2-17.2-11.6-25.9-16.2
		c8.5-6.5,17.2-12.2,25.9-17.1c8.7,4.9,17.4,10.6,25.9,17.1C157.1,80.5,148.4,85.9,139.9,92.1 M185.4,140.5
		c-6.3,7.9-13.4,15.8-21.3,23.4c-7.8,7.6-16,14.5-24.2,20.6c-8.3-6.2-16.4-13.1-24.2-20.6s-14.9-15.3-21.3-23.4
		c6.3-7.9,13.4-15.8,21.3-23.4c7.8-7.5,15.9-14.4,24.2-20.6c8.3,6.2,16.4,13.1,24.2,20.6C171.9,124.7,179,132.5,185.4,140.5
		 M172.4,76.5c7.8-3.9,15.7-7,23.3-9.4c2.6-0.8,5.1-1.5,7.6-2.1c2.5,2.2,5,4.5,7.4,6.9c2.5,2.4,4.9,4.8,7.2,7.2
		c-2.4,9.5-6.4,19.6-11.9,29.9c-5-5.8-10.4-11.5-16.1-17.1C184.3,86.5,178.4,81.3,172.4,76.5 M187.4,94.5
		c6.1,5.8,11.7,11.9,16.8,17.9c-4.6,8.3-10.2,16.7-16.6,25.1c-6.3-7.9-13.4-15.6-21-22.9c-7.6-7.4-15.6-14.2-23.7-20.3
		c8.5-6.1,17.2-11.5,25.9-16C175.2,83.3,181.4,88.7,187.4,94.5 M73.7,109.1c-4-7.6-7.2-15.1-9.7-22.6c-0.8-2.5-1.5-5-2.1-7.4
		c2.3-2.4,4.7-4.8,7.1-7.2c2.4-2.4,4.9-4.7,7.4-6.9c2.5,0.6,5,1.3,7.6,2.1c7.7,2.3,15.5,5.5,23.3,9.4c-6,4.8-11.9,10-17.6,15.5
		C84.1,97.6,78.7,103.3,73.7,109.1 M92.4,94.5c6-5.8,12.2-11.2,18.6-16.3c8.7,4.5,17.4,9.9,25.9,16c-8.1,6.1-16.1,12.9-23.7,20.3
		s-14.7,15.1-21,23c-6.4-8.2-11.9-16.7-16.6-25.1C80.7,106.4,86.4,100.4,92.4,94.5 M92.4,186.4c-6-5.8-11.6-11.8-16.8-17.9
		c4.6-8.3,10.2-16.7,16.6-25.1c6.3,7.9,13.4,15.6,21,22.9s15.6,14.2,23.7,20.3c-8.6,6.2-17.3,11.6-25.9,16.1
		C104.6,197.6,98.4,192.2,92.4,186.4 M72.2,216.8c-4.5,0.9-8.8,1.4-13,1.6c0.2-4,0.8-8.2,1.7-12.5c1.8,1.9,3.7,3.7,5.6,5.6
		C68.4,213.3,70.3,215.1,72.2,216.8 M69.1,209c-2.5-2.4-4.8-4.8-7.2-7.2c2.4-9.5,6.4-19.6,11.8-29.9c5,5.8,10.4,11.5,16.1,17.1
		c5.7,5.5,11.6,10.7,17.6,15.6c-10.7,5.3-21.1,9.1-30.9,11.5C74,213.6,71.5,211.3,69.1,209 M187.4,186.4
		c-6.1,5.9-12.3,11.3-18.6,16.3c-8.7-4.5-17.4-9.9-25.9-16c8.1-6.1,16.1-12.9,23.7-20.3c7.6-7.4,14.7-15.1,21-22.9
		c6.4,8.3,12,16.8,16.6,25.1C199.1,174.5,193.5,180.5,187.4,186.4 M218.9,205.9c0.9,4.3,1.5,8.5,1.7,12.5c-4.1-0.2-8.4-0.7-12.9-1.6
		c1.9-1.7,3.8-3.5,5.7-5.3C215.2,209.6,217.1,207.8,218.9,205.9 M210.8,209c-2.5,2.4-4.9,4.7-7.4,6.9c-2.5-0.6-5-1.3-7.6-2.1
		c-7.7-2.3-15.5-5.5-23.3-9.4c6-4.8,11.9-10,17.6-15.5c5.7-5.5,11.1-11.2,16.1-17.1c5.4,10.3,9.4,20.4,11.9,29.9
		C215.6,204.2,213.2,206.6,210.8,209 M224.2,62.4c6.3,0,12,0.9,17.2,2.5c3.6,10.2,3.4,22.8-0.1,36.7c-5.8-8-12.3-15.8-19.4-23.4
		C223.2,72.6,224,67.4,224.2,62.4L224.2,62.4 M61.8,42.4c5.1-1.7,10.9-2.5,17.2-2.5c6.4,0,13.3,0.9,20.7,2.6
		c-8.2,5.6-16.4,11.9-24.2,18.8c-5.7-1.3-11.1-2-16.3-2.2C59.2,52.9,60,47.3,61.8,42.4 M38.4,64.9c5.1-1.7,10.9-2.5,17.2-2.5l0,0
		c0.2,5,1,10.2,2.3,15.7c-7.1,7.6-13.6,15.4-19.4,23.4C35,87.4,35,74.9,38.4,64.9 M38.4,216c-3.6-10.2-3.4-22.8,0.1-36.7
		c5.8,8,12.3,15.8,19.4,23.4c-1.3,5.5-2.1,10.8-2.3,15.8C49.4,218.5,43.6,217.7,38.4,216 M241.4,216c-5.1,1.7-10.9,2.5-17.2,2.5
		c-0.2-5-1-10.2-2.3-15.7c7.1-7.6,13.7-15.5,19.4-23.4C244.8,193.2,245,205.8,241.4,216 M255.9,73.5c13.7,13.3,14.7,36.2,5.2,62.2
		c-4.4-10.1-10.2-20.2-17.1-30.2c4.2-14.8,4.7-28,1.7-38.8C249.6,68.4,253,70.7,255.9,73.5 M265.9,148.2c-0.8-2.6-1.8-5.2-2.8-7.8
		c1-2.6,2-5.2,2.8-7.8c8.7-26.7,6.1-48.6-7.4-61.7c-4-3.9-8.8-6.8-14.2-8.8c-2.1-5.3-5.1-9.9-9.1-13.8s-8.8-6.8-14.2-8.8
		c-2.1-5.3-5.1-9.9-9.1-13.8c-13.5-13.1-36.2-15.6-63.9-7.2c-2.7,0.8-5.3,1.7-8,2.7c-2.7-1-5.4-1.9-8-2.7
		c-27.6-8.4-50.3-5.9-63.9,7.2c-4,3.9-7,8.5-9.1,13.8c-5.5,2-10.2,4.9-14.2,8.8s-7,8.5-9.1,13.8c-5.5,2-10.2,4.9-14.2,8.8
		C8,84,5.3,105.9,14.1,132.6c0.8,2.6,1.8,5.2,2.8,7.8c-1,2.6-2,5.2-2.8,7.8c-8.7,26.7-6.1,48.6,7.4,61.7c4,3.9,8.8,6.8,14.2,8.8
		c2.1,5.3,5.1,9.9,9.1,13.8c4,3.9,8.8,6.8,14.2,8.8c2.1,5.3,5.1,9.9,9.1,13.8c8.3,8,20,12.1,34.2,12.1c9,0,18.9-1.6,29.6-4.9
		c2.7-0.8,5.3-1.7,8-2.7c2.7,1,5.4,1.9,8,2.7c10.7,3.3,20.7,4.9,29.6,4.9c14.2,0,25.9-4.1,34.2-12.1c4-3.9,7-8.5,9.1-13.8
		c5.5-2,10.2-4.9,14.2-8.8c4-3.9,7-8.5,9.1-13.8c5.5-2,10.2-4.9,14.2-8.8C272,196.9,274.7,174.9,265.9,148.2"/>
</g>
<g id="path1">
	<path class="st1" d="M72.7,23.4C-0.1,96.1,207.2,281.6,263.6,200.6C301.8,122.9,137.9-21.1,72.7,23.4z"/>
</g>
<g id="path2">
	<path class="st1" d="M49.4,46c-72.8,72.7,134.5,258.2,190.9,177.2C278.5,145.5,114.6,1.5,49.4,46z"/>
</g>
<g id="path3">
	<path class="st1" d="M25.8,69C-47,141.7,160.3,327.2,216.7,246.2C254.9,168.5,91,24.5,25.8,69z"/>
</g>
<g id="path4">
	<path class="st1" d="M213.8,30.9C142.8-38.7-45.7,150,26.1,211.6c1.3,1.1,2.7,2,4.2,2.7C106.9,251,253.9,101.8,216.9,34.9
		C216.1,33.4,215,32.1,213.8,30.9z"/>
</g>
<g id="path5">
	<path class="st1" d="M237.2,53.1c-71-69.6-259.5,119.1-187.7,180.7c1.3,1.1,2.7,2,4.2,2.7C130.3,273.2,277.2,124,240.3,57.1
		C239.4,55.6,238.4,54.2,237.2,53.1z"/>
</g>
<g id="path6">
	<path class="st1" d="M260.7,76.4C189.8,6.8,1.2,195.6,73,257.2c1.3,1.1,2.7,2,4.2,2.7c76.6,36.7,223.6-112.5,186.6-179.4
		C263,79,262,77.6,260.7,76.4z"/>
</g>
</svg>
